<?xml version="1.0"?>
<svg xmlns="http://www.w3.org/2000/svg" height="512px" viewBox="-68 1 511 511.99899" width="512px"><g><path d="m187.917969 437.78125c12.214843 0 22.152343-9.9375 22.152343-22.152344v-34.425781c14.796876-8.042969 24.105469-23.46875 24.105469-40.613281 0-12.609375-4.984375-24.394532-14.03125-33.183594-9.042969-8.785156-20.9375-13.414062-33.597656-13.054688-23.992187.695313-43.6875 20.011719-44.832031 43.976563-.851563 17.839844 8.648437 34.457031 24.050781 42.867187v34.433594c0 12.214844 9.9375 22.152344 22.152344 22.152344zm-31.003907-98.726562c.769532-16.070313 13.980469-29.023438 30.074219-29.492188.3125-.007812.621094-.011719.933594-.011719 8.128906 0 15.777344 3.09375 21.621094 8.773438 6.070312 5.894531 9.414062 13.804687 9.414062 22.265625 0 12.6875-7.601562 23.976562-19.363281 28.757812-2.867188 1.167969-4.742188 3.953125-4.742188 7.050782v39.230468c0 3.824219-3.109374 6.9375-6.933593 6.9375s-6.933594-3.113281-6.933594-6.9375v-39.230468c0-3.097657-1.875-5.882813-4.746094-7.050782-12.1875-4.953125-19.953125-17.128906-19.324219-30.292968zm0 0" data-original="#000000" class="active-path" data-old_color="#000000" fill="#4B5762"/><path d="m367.726562 364.574219c4.203126 0 7.609376-3.40625 7.609376-7.609375v-78.496094c0-25.652344-14.300782-48.023438-35.347657-59.570312v-66.828126c0-40.5625-15.835937-78.734374-44.585937-107.484374-28.765625-28.753907-66.933594-44.585938-107.484375-44.585938-42.800781 0-83.875 18.246094-112.695313 50.0625-2.820312 3.113281-2.582031 7.925781.53125 10.75 3.113282 2.820312 7.925782 2.582031 10.75-.53125 25.9375-28.640625 62.902344-45.0625 101.414063-45.0625 36.484375 0 70.835937 14.25 96.722656 40.128906 25.878906 25.875 40.128906 60.226563 40.128906 96.722656v60.746094c-5.539062-1.460937-11.347656-2.25-17.339843-2.25h-13.09375v-58.496094c0-58.679687-47.738282-106.414062-106.414063-106.414062-58.679687 0-106.417969 47.734375-106.417969 106.414062v58.496094h-13.097656c-5.992188 0-11.804688.789063-17.339844 2.25v-60.746094c0-24.085937 6.367188-47.773437 18.417969-68.503906 2.109375-3.632812.878906-8.289062-2.753906-10.402344-3.632813-2.109374-8.292969-.878906-10.40625 2.753907-13.394531 23.050781-20.476563 49.382812-20.476563 76.152343v66.828126c-21.046875 11.546874-35.347656 33.917968-35.347656 59.570312v165.625c0 37.445312 30.460938 67.90625 67.90625 67.90625h239.023438c37.441406 0 67.90625-30.460938 67.90625-67.90625v-56.6875c0-4.203125-3.40625-7.609375-7.609376-7.609375-4.203124 0-7.609374 3.40625-7.609374 7.609375v56.6875c0 29.050781-23.636719 52.6875-52.6875 52.6875h-239.023438c-29.050781 0-52.6875-23.636719-52.6875-52.6875v-165.625c0-29.050781 23.636719-52.683594 52.6875-52.683594h239.023438c29.050781 0 52.6875 23.632813 52.6875 52.683594v78.5c0 4.199219 3.40625 7.605469 7.609374 7.605469zm-271.003906-212.503907c0-50.289062 40.910156-91.199218 91.199219-91.199218 50.285156 0 91.195313 40.910156 91.195313 91.199218v58.496094h-182.394532zm0 0" data-original="#000000" class="active-path" data-old_color="#000000" fill="#4B5762"/></g> </svg>
