<?xml version="1.0"?>
<svg xmlns="http://www.w3.org/2000/svg" xmlns:xlink="http://www.w3.org/1999/xlink" version="1.1" id="Layer_1" x="0px" y="0px" viewBox="0 0 505 505" style="enable-background:new 0 0 505 505;" xml:space="preserve" width="512px" height="512px" class=""><g><g><circle style="fill:#263238" cx="252.5" cy="252.5" r="252.5" data-original="#263238" class="" data-old_color="#84DBFF"/><rect x="271.808" y="282.976" transform="matrix(-0.7071 -0.7071 0.7071 -0.7071 295.049 710.6657)" style="fill:#FFFFFF" width="45.8" height="22.5" data-original="#FFFFFF" class="active-path" data-old_color="#2B3B4E"/><circle style="fill:#FFFFFF" cx="204.4" cy="204.9" r="117.4" data-original="#FFFFFF" class="active-path" data-old_color="#324A5E"/><circle style="fill:#263238" cx="204.4" cy="204.9" r="92.8" data-original="#263238" class="" data-old_color="#FFFFFF"/><path style="fill:#FFFFFF" d="M322,287.4l-34.1,34.1c-0.9,0.9-0.9,2.2,0,3.1l94.9,94.9c0.9,0.9,2.2,0.9,3.1,0l34.1-34.1  c0.9-0.9,0.9-2.2,0-3.1l-94.9-94.9C324.3,286.6,322.9,286.6,322,287.4z" data-original="#FFFFFF" class="active-path" data-old_color="#FF7058"/><g>
	<path style="fill:#263238" d="M281,181.8v75.4c-3.1,4.7-6.8,9.1-11,13.3c-5.4,5.4-11.2,9.9-17.4,13.7V181.8H281z" data-original="#263238" class="" data-old_color="#FFD05B"/>
	<path style="fill:#263238" d="M239.4,206.6v84.2c-9.1,3.7-18.7,5.9-28.4,6.6v-90.7h28.4V206.6z" data-original="#263238" class="" data-old_color="#FFD05B"/>
	<path style="fill:#263238" d="M197.7,150v147.4c-9.7-0.7-19.2-2.9-28.4-6.6V150H197.7z" data-original="#263238" class="" data-old_color="#FFD05B"/>
	<path style="fill:#263238" d="M156.1,224.9V284c-6.2-3.7-12-8.3-17.3-13.6c-4.2-4.2-7.8-8.6-11-13.3v-32.2L156.1,224.9   L156.1,224.9z" data-original="#263238" class="" data-old_color="#FFD05B"/>
</g></g></g> </svg>
